<svg xmlns="http://www.w3.org/2000/svg" width="960" height="560"><switch><g><linearGradient id="a" x1="456.013" y1="516" x2="456.013" y2="68.699"><stop offset="0" stop-color="#9d9fa2"/><stop offset="1" stop-color="#d1d3d4"/></linearGradient><path fill="url(#a)" d="M301.75 69.234L480.03 516h130.245z"/><linearGradient id="b" x1="325.524" y1="516" x2="325.524" y2="68.001"><stop offset="0" stop-color="#9d9fa2"/><stop offset="1" stop-color="#f1f2f2"/></linearGradient><path fill="url(#b)" d="M301.382 68H171.019l308.895 448h.116L301.75 68.884z"/><linearGradient id="c" x1="313.932" y1="182.358" x2="407.07" y2="312.01"><stop offset="0" stop-color="#9d9fa2" stop-opacity="0"/><stop offset=".075" stop-color="#909294" stop-opacity=".143"/><stop offset=".246" stop-color="#77797b" stop-opacity=".468"/><stop offset=".401" stop-color="#68696c" stop-opacity=".763"/><stop offset=".525" stop-color="#636466"/><stop offset=".662" stop-color="#666769" stop-opacity=".713"/><stop offset=".767" stop-color="#6f7173" stop-opacity=".492"/><stop offset=".861" stop-color="#808184" stop-opacity=".293"/><stop offset=".949" stop-color="#96989b" stop-opacity=".108"/><stop offset="1" stop-color="#a7a9ac" stop-opacity="0"/></linearGradient><path fill="url(#c)" d="M362.849 344L227.902 147.789l128.644.345L491.432 344z"/><g><linearGradient id="d" x1="34.649" y1="280.128" x2="786.352" y2="280.128"><stop offset="0" stop-color="#007dac"/><stop offset="1" stop-color="#00517b"/></linearGradient><path fill="url(#d)" d="M782.308 44.745C356.285 92.681 82.054 360.58 82.054 360.58L34.649 515.511C323.662 111.012 737.209 50.252 782.308 44.745z"/><linearGradient id="e" x1="-29.482" y1="44.516" x2="872.859" y2="44.516"><stop offset="0" stop-color="#00517b"/><stop offset="1" stop-color="#007dac"/></linearGradient><path fill="url(#e)" d="M782.308 44.745c1.349-.152 2.691-.311 4.043-.458 0 0-1.386.134-4.043.458z"/><linearGradient id="f" x1="34.649" y1="515.513" x2="427.044" y2="515.513"><stop offset="0" stop-color="#00517b"/><stop offset="1" stop-color="#007dac"/></linearGradient><path fill="url(#f)" d="M83.818 515.515l-49.169-.004"/><linearGradient id="g" x1="34.649" y1="279.901" x2="786.351" y2="279.901"><stop offset="0" stop-color="#00517b"/><stop offset="1" stop-color="#007dac"/></linearGradient><path fill="url(#g)" d="M786.351 44.287c-1.352.147-2.694.306-4.043.458-45.099 5.507-458.646 66.267-747.658 470.766l49.168.004 201.66-127.303C490.311 132.503 786.351 44.287 786.351 44.287z"/><linearGradient id="h" x1="-29.211" y1="279.906" x2="872.83" y2="279.906"><stop offset="0" stop-color="#00517b"/><stop offset="1" stop-color="#007dac"/></linearGradient><path fill="url(#h)" d="M782.308 44.745c-45.099 5.507-458.646 66.267-747.658 470.766l49.168.004 116.574.01c25.404-46.427 54.21-88.769 85.085-127.313C490.311 132.503 786.351 44.287 786.351 44.287c-1.352.147-2.695.306-4.043.458z"/></g></g></switch></svg>